<?xml version="1.0" standalone="no"?>
<!DOCTYPE svg PUBLIC "-//W3C//DTD SVG 20010904//EN"
 "http://www.w3.org/TR/2001/REC-SVG-20010904/DTD/svg10.dtd">
<svg version="1.0" xmlns="http://www.w3.org/2000/svg"
 width="649.000000pt" height="192.000000pt" viewBox="0 0 649.000000 192.000000"
 preserveAspectRatio="xMidYMid meet">

<g transform="translate(0.000000,192.000000) scale(0.100000,-0.100000)"
fill="#fff" stroke="none">
<path d="M926 1912 c-3 -6 -23 -8 -44 -5 -54 7 -224 -38 -327 -86 -47 -22 -85
-44 -85 -50 0 -6 -6 -10 -12 -9 -7 2 -12 -5 -10 -14 1 -9 -2 -19 -8 -23 -6 -3
-7 0 -4 9 3 9 2 16 -3 16 -15 0 -136 -105 -178 -155 -22 -26 -45 -52 -50 -59
-49 -53 -122 -190 -153 -286 -29 -93 -32 -111 -19 -103 9 5 8 2 0 -8 -19 -24
-25 -79 -11 -97 8 -10 9 -13 1 -9 -16 10 -29 -91 -13 -106 8 -9 10 -8 7 3 -2
8 -2 12 0 7 3 -4 10 -4 16 0 7 3 3 -3 -7 -15 -16 -18 -18 -31 -12 -85 26 -253
194 -525 417 -673 241 -160 549 -201 829 -112 233 75 441 253 554 476 72 141
114 346 101 485 l-7 67 -98 0 -97 0 -5 -137 c-4 -115 -9 -151 -32 -218 -40
-117 -98 -209 -191 -301 -66 -66 -100 -90 -176 -128 -139 -69 -236 -90 -379
-83 -174 8 -315 60 -446 165 -137 111 -249 303 -270 465 -8 58 -24 83 -43 64
-8 -8 -11 -7 -11 5 0 12 7 16 20 13 16 -3 20 1 19 23 0 27 9 142 12 152 1 3 3
10 4 15 0 6 12 41 24 79 41 120 89 195 194 300 70 71 108 99 185 138 15 8 20
17 16 30 -3 10 0 18 6 18 6 0 9 -4 5 -9 -12 -20 16 -20 62 1 26 11 53 22 58
23 6 1 12 3 15 4 24 12 276 17 309 7 18 -6 22 -5 16 5 -5 8 0 7 11 -3 10 -9
30 -19 44 -21 14 -2 36 -9 50 -14 14 -6 42 -18 64 -27 60 -25 170 -102 211
-147 31 -35 36 -46 31 -73 -7 -37 -39 -66 -72 -66 -13 0 -48 20 -79 46 -31 25
-77 58 -102 74 -54 35 -167 74 -188 66 -8 -3 -15 -1 -15 4 0 6 -30 10 -70 9
-48 -1 -68 -5 -63 -13 3 -6 0 -6 -8 2 -19 18 -48 15 -136 -13 -76 -24 -203
-96 -203 -115 0 -6 -6 -10 -12 -10 -31 0 -174 -200 -164 -227 3 -7 1 -13 -5
-13 -6 0 -8 -4 -4 -9 3 -5 0 -13 -6 -16 -5 -4 -8 -13 -5 -20 3 -8 0 -15 -6
-17 -13 -5 -24 -202 -14 -242 l6 -26 302 0 302 0 -142 143 c-89 90 -142 151
-142 164 0 11 9 32 21 47 12 15 17 31 13 38 -6 10 -5 10 7 1 12 -10 151 -13
582 -13 l566 0 -19 56 c-95 275 -345 516 -620 598 -36 11 -51 11 -60 3 -9 -9
-11 -9 -7 -1 7 12 -13 24 -39 24 -9 0 -12 -5 -8 -12 4 -7 -2 -5 -14 5 -21 19
-48 15 -36 -5 4 -7 2 -8 -5 -4 -6 4 -9 12 -6 17 4 5 -4 9 -17 8 -13 0 -44 2
-70 6 -26 3 -49 2 -52 -3z m91 -48 c-3 -3 -12 -4 -19 -1 -8 3 -5 6 6 6 11 1
17 -2 13 -5z m-302 -14 c3 -6 -1 -7 -9 -4 -18 7 -21 14 -7 14 6 0 13 -4 16
-10z m410 0 c-3 -5 -12 -10 -18 -10 -7 0 -6 4 3 10 19 12 23 12 15 0z m-348
-25 c0 -8 -4 -12 -9 -9 -5 3 -6 10 -3 15 9 13 12 11 12 -6z m-147 -39 c0 -11
-30 1 -39 16 -11 18 -11 18 14 2 14 -9 25 -17 25 -18z m305 14 c3 -5 1 -10 -4
-10 -6 0 -11 5 -11 10 0 6 2 10 4 10 3 0 8 -4 11 -10z m-285 -20 c-6 -11 -13
-20 -16 -20 -2 0 0 9 6 20 6 11 13 20 16 20 2 0 0 -9 -6 -20z m51 3 c13 -16
12 -17 -3 -4 -10 7 -18 15 -18 17 0 8 8 3 21 -13z m63 1 c3 -8 2 -12 -4 -9 -6
3 -10 10 -10 16 0 14 7 11 14 -7z m411 -2 c-3 -3 -11 0 -18 7 -9 10 -8 11 6 5
10 -3 15 -9 12 -12z m-287 -37 c-3 -3 -9 2 -12 12 -6 14 -5 15 5 6 7 -7 10
-15 7 -18z m152 9 c0 -8 -19 -13 -24 -6 -3 5 1 9 9 9 8 0 15 -2 15 -3z m66 -6
c8 -12 -14 -28 -31 -22 -6 3 -12 11 -12 17 0 16 34 20 43 5z m-172 -6 c3 -5
-1 -9 -9 -9 -8 0 -12 4 -9 9 3 4 7 8 9 8 2 0 6 -4 9 -8z m-440 -18 c3 -8 2
-12 -4 -9 -6 3 -10 10 -10 16 0 14 7 11 14 -7z m21 -34 c3 -6 -1 -7 -10 -4 -8
4 -23 0 -33 -7 -15 -13 -16 -12 -3 4 15 19 36 22 46 7z m-157 -53 c14 6 15 5
2 -9 -15 -16 -31 -7 -29 17 0 6 3 5 5 -2 3 -7 13 -9 22 -6z m142 -12 c14 -19
14 -19 -2 -6 -10 7 -18 18 -18 24 0 6 1 8 3 6 1 -2 9 -13 17 -24z m-184 -10
c1 -9 -4 -11 -14 -7 -10 4 -12 7 -4 10 7 2 9 9 5 15 -3 7 -2 8 2 4 5 -4 10
-14 11 -22z m-58 -100 c-3 -3 -9 2 -12 12 -6 14 -5 15 5 6 7 -7 10 -15 7 -18z
m647 -3 c-3 -3 -11 0 -18 7 -9 10 -8 11 6 5 10 -3 15 -9 12 -12z m-552 -32 c3
-11 1 -18 -4 -14 -5 3 -9 12 -9 20 0 20 7 17 13 -6z m-143 -11 c0 -6 -4 -7
-10 -4 -5 3 -10 11 -10 16 0 6 5 7 10 4 6 -3 10 -11 10 -16z m120 15 c0 -8
-19 -13 -24 -6 -3 5 1 9 9 9 8 0 15 -2 15 -3z m320 -56 c0 -4 -4 -8 -9 -8 -6
0 -12 4 -15 8 -3 5 1 9 9 9 8 0 15 -4 15 -9z m-367 -23 c-7 -21 -12 -19 -10 4
0 11 5 18 9 15 4 -3 5 -11 1 -19z m767 15 c0 -5 -5 -10 -11 -10 -5 0 -7 5 -4
10 3 6 8 10 11 10 2 0 4 -4 4 -10z m-313 -27 c1 -22 -1 -24 -8 -10 -6 9 -7 22
-4 27 9 14 10 13 12 -17z m-537 7 c0 -5 -5 -10 -11 -10 -5 0 -7 5 -4 10 3 6 8
10 11 10 2 0 4 -4 4 -10z m381 -37 c13 -16 12 -17 -3 -4 -10 7 -18 15 -18 17
0 8 8 3 21 -13z m-431 -7 c0 -2 -7 -7 -16 -10 -8 -3 -12 -2 -9 4 6 10 25 14
25 6z m137 -18 c-3 -8 -6 -5 -6 6 -1 11 2 17 5 13 3 -3 4 -12 1 -19z m700 8
c-10 -8 -17 -16 -15 -19 2 -3 -1 -9 -6 -14 -5 -5 -6 -3 -2 5 4 7 2 12 -6 12
-7 1 -2 7 12 15 32 18 40 18 17 1z m-120 -11 c0 -8 -4 -12 -9 -9 -5 3 -6 10
-3 15 9 13 12 11 12 -6z m-337 -15 c0 -5 -8 -10 -17 -10 -15 0 -16 2 -3 10 19
12 20 12 20 0z m-276 -29 c-2 -3 -12 3 -22 13 -16 17 -16 18 5 5 12 -7 20 -15
17 -18z m534 0 c11 -7 10 -9 -3 -14 -11 -5 -14 -3 -9 5 5 8 2 9 -9 5 -10 -3
-17 -2 -17 3 0 12 20 13 38 1z m149 2 c-4 -3 -1 -13 6 -22 11 -14 10 -14 -5
-2 -16 12 -16 31 -1 31 4 0 3 -3 0 -7z m-312 -12 c3 -5 2 -12 -3 -15 -5 -3 -9
1 -9 9 0 17 3 19 12 6z m-395 -5 c0 -2 -7 -9 -15 -16 -13 -11 -14 -10 -9 4 5
14 24 23 24 12z m300 -6 c0 -5 -2 -10 -4 -10 -3 0 -8 5 -11 10 -3 6 -1 10 4
10 6 0 11 -4 11 -10z m175 -19 c-9 -8 -36 -10 -30 -2 2 4 11 8 20 8 8 0 13 -3
10 -6z m222 3 c-3 -3 -12 -4 -19 -1 -8 3 -5 6 6 6 11 1 17 -2 13 -5z m-730
-39 c0 -8 -3 -13 -5 -10 -3 3 -12 -1 -21 -7 -10 -8 -9 -4 3 10 23 26 23 26 23
7z m31 -10 c-6 -14 -13 -23 -15 -21 -5 5 15 46 22 46 3 0 -1 -11 -7 -25z
m-168 -35 c0 -5 -2 -10 -4 -10 -3 0 -8 5 -11 10 -3 6 -1 10 4 10 6 0 11 -4 11
-10z m67 -25 c0 -8 -4 -12 -9 -9 -10 7 -10 24 0 24 5 0 9 -7 9 -15z m434 -12
c13 -17 13 -17 -6 -3 -11 8 -22 16 -24 17 -2 2 0 3 6 3 6 0 17 -8 24 -17z
m-391 -13 c-8 -5 -19 -10 -25 -10 -5 0 -3 5 5 10 8 5 20 10 25 10 6 0 3 -5 -5
-10z m-83 -16 c-3 -3 -12 -4 -19 -1 -8 3 -5 6 6 6 11 1 17 -2 13 -5z m398 -24
c3 -5 1 -10 -4 -10 -6 0 -11 5 -11 10 0 6 2 10 4 10 3 0 8 -4 11 -10z m115
-65 c0 -5 -5 -3 -10 5 -5 8 -10 20 -10 25 0 6 5 3 10 -5 5 -8 10 -19 10 -25z
m60 30 c0 0 -9 -8 -19 -17 -18 -16 -20 -15 -18 1 0 9 9 17 19 17 10 0 18 -1
18 -1z m-590 -41 c0 -8 -19 -13 -24 -6 -3 5 1 9 9 9 8 0 15 -2 15 -3z m40 -24
c0 -5 -8 -10 -17 -10 -15 0 -16 2 -3 10 19 12 20 12 20 0z m320 -45 c0 -5 -5
-3 -10 5 -8 12 -10 12 -10 1 0 -8 -2 -12 -5 -9 -3 3 -2 13 1 22 5 14 9 15 15
4 5 -7 9 -17 9 -23z m65 25 c3 -5 2 -10 -4 -10 -5 0 -13 5 -16 10 -3 6 -2 10
4 10 5 0 13 -4 16 -10z m-375 -46 c0 -2 -7 -4 -15 -4 -8 0 -15 4 -15 10 0 5 7
7 15 4 8 -4 15 -8 15 -10z"/>
<path d="M1080 1739 c0 -5 5 -7 10 -4 6 3 10 8 10 11 0 2 -4 4 -10 4 -5 0 -10
-5 -10 -11z"/>
<path d="M3380 1030 l0 -330 45 0 c37 0 45 3 45 19 0 17 3 17 47 -5 52 -27 63
-28 116 -13 95 26 152 129 129 236 -13 63 -49 116 -94 139 -46 24 -140 15
-173 -16 l-25 -23 0 161 0 162 -45 0 -45 0 0 -330z m240 -25 c78 -41 80 -189
3 -224 -53 -24 -120 -3 -141 44 -20 43 -15 118 9 149 36 46 80 56 129 31z"/>
<path d="M4162 1310 c-93 -19 -178 -86 -228 -180 -27 -50 -27 -210 0 -260 81
-151 244 -215 405 -161 l64 22 21 -20 c17 -16 36 -21 76 -21 l55 0 -52 45 -52
46 33 44 c60 78 72 210 27 308 -54 122 -216 204 -349 177z m167 -100 c111 -56
161 -203 105 -311 -26 -52 -37 -52 -84 -4 -41 41 -48 45 -94 45 l-50 0 67 -68
68 -69 -30 -13 c-41 -17 -118 -16 -161 2 -89 38 -140 115 -140 214 1 93 43
164 125 207 44 23 146 22 194 -3z"/>
<path d="M2459 1287 c-84 -44 -112 -153 -56 -223 12 -15 62 -46 113 -70 51
-24 100 -54 108 -66 25 -35 20 -91 -10 -127 -22 -27 -33 -31 -73 -31 -58 0
-87 20 -102 69 l-11 38 -41 -9 c-23 -5 -43 -11 -45 -13 -8 -8 21 -77 45 -106
37 -43 80 -62 144 -62 82 0 136 32 172 102 32 64 34 110 8 167 -22 49 -65 82
-144 114 -78 30 -107 55 -107 89 0 66 102 98 150 46 28 -30 31 -30 70 -6 l31
18 -27 32 c-14 17 -39 38 -55 46 -43 22 -118 19 -170 -8z"/>
<path d="M5316 1080 c-125 -38 -159 -250 -54 -347 70 -65 217 -54 276 22 29
36 28 41 -9 61 -31 15 -32 15 -63 -15 -26 -25 -40 -31 -77 -31 -50 0 -79 21
-98 73 l-11 27 142 0 141 0 -6 55 c-3 31 -14 70 -24 88 -35 61 -134 91 -217
67z m109 -76 c8 -4 22 -19 31 -35 l15 -29 -86 0 c-92 0 -101 7 -63 47 21 23
67 30 103 17z"/>
<path d="M5835 1073 c-20 -11 -30 -12 -33 -4 -2 6 -21 11 -43 11 l-39 0 0
-190 0 -190 45 0 45 0 0 119 c0 66 4 131 10 145 13 36 52 53 85 38 23 -11 26
-9 44 27 l20 38 -25 12 c-34 15 -73 13 -109 -6z"/>
<path d="M1087 948 c79 -81 133 -144 137 -161 6 -27 -7 -65 -28 -79 -6 -4
-183 -8 -393 -8 -211 0 -383 -2 -383 -5 0 -20 77 -120 133 -172 187 -175 463
-211 690 -91 73 39 192 152 232 222 65 112 101 283 81 390 l-7 36 -296 0 -297
0 131 -132z"/>
<path d="M2890 943 c0 -158 11 -193 70 -227 44 -26 132 -27 177 -3 56 30 67
64 71 225 l4 142 -46 0 -46 0 0 -135 c0 -122 -2 -137 -20 -155 -13 -13 -33
-20 -59 -20 -63 0 -71 20 -71 177 l0 133 -40 0 -40 0 0 -137z"/>
<path d="M4720 929 l0 -151 33 -33 c67 -67 175 -69 240 -5 l37 38 0 151 0 151
-39 0 -39 0 -4 -134 c-3 -115 -6 -137 -22 -155 -19 -21 -78 -29 -103 -13 -24
15 -33 66 -33 183 l0 119 -35 0 -35 0 0 -151z"/>
<path d="M6070 1074 c0 -3 36 -69 80 -148 44 -78 80 -148 80 -155 0 -7 -31
-70 -70 -140 -38 -70 -70 -131 -70 -135 0 -4 21 -6 47 -4 l47 3 148 285 c81
157 148 288 148 293 0 4 -20 7 -45 7 l-46 0 -49 -105 c-27 -58 -53 -105 -57
-105 -4 0 -33 47 -63 105 l-55 105 -47 0 c-27 0 -48 -3 -48 -6z"/>
</g>
</svg>
